<?xml version="1.0" encoding="UTF-8" standalone="no"?>
<!-- Created with Inkscape (http://www.inkscape.org/) -->

<svg
   xmlns:ns0="http://www.iki.fi/pav/software/textext/"
   xmlns:dc="http://purl.org/dc/elements/1.1/"
   xmlns:cc="http://creativecommons.org/ns#"
   xmlns:rdf="http://www.w3.org/1999/02/22-rdf-syntax-ns#"
   xmlns:svg="http://www.w3.org/2000/svg"
   xmlns="http://www.w3.org/2000/svg"
   xmlns:xlink="http://www.w3.org/1999/xlink"
   xmlns:sodipodi="http://sodipodi.sourceforge.net/DTD/sodipodi-0.dtd"
   xmlns:inkscape="http://www.inkscape.org/namespaces/inkscape"
   width="70.222275mm"
   height="40.96484mm"
   viewBox="0 0 248.81908 145.15101"
   id="svg2"
   version="1.1"
   inkscape:version="0.91 r13725"
   sodipodi:docname="hfcn.svg">
  <sodipodi:namedview
     id="base"
     pagecolor="#ffffff"
     bordercolor="#666666"
     borderopacity="1.0"
     inkscape:pageopacity="0.0"
     inkscape:pageshadow="2"
     inkscape:zoom="2.9498416"
     inkscape:cx="83.10116"
     inkscape:cy="7.2879527"
     inkscape:document-units="px"
     inkscape:current-layer="layer1"
     showgrid="false"
     inkscape:window-width="849"
     inkscape:window-height="1525"
     inkscape:window-x="854"
     inkscape:window-y="54"
     inkscape:window-maximized="0"
     fit-margin-top="0"
     fit-margin-left="0"
     fit-margin-right="0"
     fit-margin-bottom="0" />
  <defs
     id="defs4">
    <marker
       inkscape:isstock="true"
       style="overflow:visible"
       id="EmptyTriangleOutL"
       refX="0.0"
       refY="0.0"
       orient="auto"
       inkscape:stockid="EmptyTriangleOutL">
      <path
         transform="scale(0.8) translate(-6,0)"
         style="fill-rule:evenodd;fill:#ffffff;stroke:#000000;stroke-width:1pt;stroke-opacity:1"
         d="M 5.77,0.0 L -2.88,5.0 L -2.88,-5.0 L 5.77,0.0 z "
         id="path4445" />
    </marker>
    <marker
       inkscape:isstock="true"
       style="overflow:visible"
       id="marker4541"
       refX="0.0"
       refY="0.0"
       orient="auto"
       inkscape:stockid="EmptyTriangleOutM">
      <path
         transform="scale(0.4) translate(-4.5,0)"
         style="fill-rule:evenodd;fill:#ffffff;stroke:#000000;stroke-width:1pt;stroke-opacity:1"
         d="M 5.77,0.0 L -2.88,5.0 L -2.88,-5.0 L 5.77,0.0 z "
         id="path4448" />
    </marker>
    <marker
       inkscape:stockid="EmptyTriangleOutM"
       orient="auto"
       refY="0.0"
       refX="0.0"
       id="EmptyTriangleOutM"
       style="overflow:visible"
       inkscape:isstock="true">
      <path
         id="path4400"
         d="M 5.77,0.0 L -2.88,5.0 L -2.88,-5.0 L 5.77,0.0 z "
         style="fill-rule:evenodd;fill:#ffffff;stroke:#0000ff;stroke-width:1pt;stroke-opacity:1"
         transform="scale(0.4) translate(-4.5,0)" />
    </marker>
    <marker
       inkscape:stockid="Arrow1Mend"
       orient="auto"
       refY="0"
       refX="0"
       id="marker4523"
       style="overflow:visible"
       inkscape:isstock="true">
      <path
         inkscape:connector-curvature="0"
         id="path4525"
         d="M 0,0 5,-5 -12.5,0 5,5 0,0 Z"
         style="fill:#000000;fill-opacity:1;fill-rule:evenodd;stroke:#000000;stroke-width:1pt;stroke-opacity:1"
         transform="matrix(-0.4,0,0,-0.4,-4,0)" />
    </marker>
    <marker
       inkscape:stockid="Arrow1Lend"
       orient="auto"
       refY="0"
       refX="0"
       id="Arrow1Lend"
       style="overflow:visible"
       inkscape:isstock="true">
      <path
         inkscape:connector-curvature="0"
         id="path4240"
         d="M 0,0 5,-5 -12.5,0 5,5 0,0 Z"
         style="fill:#000000;fill-opacity:1;fill-rule:evenodd;stroke:#000000;stroke-width:1pt;stroke-opacity:1"
         transform="matrix(-0.8,0,0,-0.8,-10,0)" />
    </marker>
    <marker
       inkscape:stockid="Arrow1Mend"
       orient="auto"
       refY="0"
       refX="0"
       id="Arrow1Mend"
       style="overflow:visible"
       inkscape:isstock="true">
      <path
         inkscape:connector-curvature="0"
         id="path4246"
         d="M 0,0 5,-5 -12.5,0 5,5 0,0 Z"
         style="fill:#000000;fill-opacity:1;fill-rule:evenodd;stroke:#000000;stroke-width:1pt;stroke-opacity:1"
         transform="matrix(-0.4,0,0,-0.4,-4,0)" />
    </marker>
  </defs>
  <metadata
     id="metadata7">
    <rdf:RDF>
      <cc:Work
         rdf:about="">
        <dc:format>image/svg+xml</dc:format>
        <dc:type
           rdf:resource="http://purl.org/dc/dcmitype/StillImage" />
        <dc:title />
      </cc:Work>
    </rdf:RDF>
  </metadata>
  <g
     transform="translate(-159.61277,-54.034605)"
     id="layer1"
     inkscape:groupmode="layer"
     inkscape:label="Layer 1">
    <path
       style="fill:none;fill-rule:evenodd;stroke:#000000;stroke-width:1px;stroke-linecap:butt;stroke-linejoin:miter;stroke-opacity:1;marker-end:url(#Arrow1Mend)"
       d="m 159.61277,176.81642 246.90907,0"
       id="path4231"
       inkscape:connector-curvature="0" />
    <path
       style="fill:none;fill-rule:evenodd;stroke:#000000;stroke-width:1px;stroke-linecap:butt;stroke-linejoin:miter;stroke-opacity:1;marker-end:url(#marker4523)"
       d="m 209.71775,194.37899 0,-138.434371"
       id="path4507"
       inkscape:connector-curvature="0" />
    <path
       style="fill:none;fill-rule:evenodd;stroke:#0000ff;stroke-width:2.00000018;stroke-linecap:butt;stroke-linejoin:miter;stroke-miterlimit:4;stroke-dasharray:none;stroke-opacity:1;marker-end:"
       d="m 209.54248,176.29988 59.57808,0 115.96461,-115.964619"
       id="path4545"
       inkscape:connector-curvature="0"
       sodipodi:nodetypes="ccc" />
    <g
       transform="matrix(1.5,0,0,1.5,-166.16023,-135.61776)"
       ns0:text="$u_1(x)$"
       ns0:preamble=""
       id="g4593">
      <defs
         id="defs4595">
        <g
           id="g4597">
          <symbol
             style="overflow:visible"
             overflow="visible"
             id="textext-6b01cdc7-0">
            <path
               inkscape:connector-curvature="0"
               style="stroke:none"
               d=""
               id="path4600" />
          </symbol>
          <symbol
             style="overflow:visible"
             overflow="visible"
             id="textext-6b01cdc7-1">
            <path
               inkscape:connector-curvature="0"
               style="stroke:none"
               d="M 3.484375,-0.5625 C 3.59375,-0.15625 3.953125,0.109375 4.375,0.109375 4.71875,0.109375 4.953125,-0.125 5.109375,-0.4375 5.28125,-0.796875 5.40625,-1.40625 5.40625,-1.421875 c 0,-0.109375 -0.078125,-0.109375 -0.109375,-0.109375 -0.109375,0 -0.109375,0.046875 -0.140625,0.1875 -0.140625,0.5625 -0.328125,1.234375 -0.75,1.234375 -0.203125,0 -0.3125,-0.125 -0.3125,-0.453125 0,-0.21875 0.125,-0.6875 0.203125,-1.046875 L 4.578125,-2.6875 C 4.609375,-2.828125 4.703125,-3.203125 4.75,-3.359375 4.796875,-3.59375 4.890625,-3.96875 4.890625,-4.03125 c 0,-0.171875 -0.140625,-0.265625 -0.28125,-0.265625 -0.046875,0 -0.3125,0.015625 -0.390625,0.34375 -0.1875,0.734375 -0.625,2.484375 -0.75,3 -0.015625,0.046875 -0.40625,0.84375 -1.140625,0.84375 -0.515625,0 -0.609375,-0.453125 -0.609375,-0.8125 0,-0.5625 0.28125,-1.34375 0.53125,-2.03125 0.125,-0.3125 0.171875,-0.453125 0.171875,-0.640625 0,-0.4375 -0.3125,-0.8125 -0.8125,-0.8125 -0.953125,0 -1.3125,1.453125 -1.3125,1.53125 0,0.109375 0.09375,0.109375 0.109375,0.109375 0.109375,0 0.109375,-0.03125 0.15625,-0.1875 0.25,-0.859375 0.640625,-1.234375 1.015625,-1.234375 0.09375,0 0.25,0.015625 0.25,0.328125 0,0.234375 -0.109375,0.53125 -0.171875,0.671875 -0.375,1 -0.578125,1.609375 -0.578125,2.09375 0,0.953125 0.6875,1.203125 1.21875,1.203125 0.65625,0 1.015625,-0.453125 1.1875,-0.671875 z m 0,0"
               id="path4603" />
          </symbol>
          <symbol
             style="overflow:visible"
             overflow="visible"
             id="textext-6b01cdc7-2">
            <path
               inkscape:connector-curvature="0"
               style="stroke:none"
               d="M 3.328125,-3.015625 C 3.390625,-3.265625 3.625,-4.1875 4.3125,-4.1875 c 0.046875,0 0.296875,0 0.5,0.125 C 4.53125,-4 4.34375,-3.765625 4.34375,-3.515625 c 0,0.15625 0.109375,0.34375 0.375,0.34375 0.21875,0 0.53125,-0.171875 0.53125,-0.578125 0,-0.515625 -0.578125,-0.65625 -0.921875,-0.65625 -0.578125,0 -0.921875,0.53125 -1.046875,0.75 -0.25,-0.65625 -0.78125,-0.75 -1.078125,-0.75 -1.03125,0 -1.609375,1.28125 -1.609375,1.53125 0,0.109375 0.109375,0.109375 0.125,0.109375 0.078125,0 0.109375,-0.03125 0.125,-0.109375 0.34375,-1.0625 1,-1.3125 1.34375,-1.3125 0.1875,0 0.53125,0.09375 0.53125,0.671875 0,0.3125 -0.171875,0.96875 -0.53125,2.375 -0.15625,0.609375 -0.515625,1.03125 -0.953125,1.03125 -0.0625,0 -0.28125,0 -0.5,-0.125 0.25,-0.0625 0.46875,-0.265625 0.46875,-0.546875 0,-0.265625 -0.21875,-0.34375 -0.359375,-0.34375 -0.3125,0 -0.546875,0.25 -0.546875,0.578125 0,0.453125 0.484375,0.65625 0.921875,0.65625 0.671875,0 1.03125,-0.703125 1.046875,-0.75 0.125,0.359375 0.484375,0.75 1.078125,0.75 1.03125,0 1.59375,-1.28125 1.59375,-1.53125 0,-0.109375 -0.078125,-0.109375 -0.109375,-0.109375 -0.09375,0 -0.109375,0.046875 -0.140625,0.109375 -0.328125,1.078125 -1,1.3125 -1.3125,1.3125 -0.390625,0 -0.546875,-0.3125 -0.546875,-0.65625 0,-0.21875 0.046875,-0.4375 0.15625,-0.875 z m 0,0"
               id="path4606" />
          </symbol>
          <symbol
             style="overflow:visible"
             overflow="visible"
             id="textext-6b01cdc7-3">
            <path
               inkscape:connector-curvature="0"
               style="stroke:none"
               d=""
               id="path4609" />
          </symbol>
          <symbol
             style="overflow:visible"
             overflow="visible"
             id="textext-6b01cdc7-4">
            <path
               inkscape:connector-curvature="0"
               style="stroke:none"
               d="m 2.328125,-4.4375 c 0,-0.1875 0,-0.1875 -0.203125,-0.1875 -0.453125,0.4375 -1.078125,0.4375 -1.359375,0.4375 l 0,0.25 c 0.15625,0 0.625,0 1,-0.1875 l 0,3.546875 c 0,0.234375 0,0.328125 -0.6875,0.328125 l -0.265625,0 0,0.25 c 0.125,0 0.984375,-0.03125 1.234375,-0.03125 0.21875,0 1.09375,0.03125 1.25,0.03125 l 0,-0.25 -0.265625,0 c -0.703125,0 -0.703125,-0.09375 -0.703125,-0.328125 z m 0,0"
               id="path4612" />
          </symbol>
          <symbol
             style="overflow:visible"
             overflow="visible"
             id="textext-6b01cdc7-5">
            <path
               inkscape:connector-curvature="0"
               style="stroke:none"
               d=""
               id="path4615" />
          </symbol>
          <symbol
             style="overflow:visible"
             overflow="visible"
             id="textext-6b01cdc7-6">
            <path
               inkscape:connector-curvature="0"
               style="stroke:none"
               d="m 3.296875,2.390625 c 0,-0.03125 0,-0.046875 -0.171875,-0.21875 C 1.890625,0.921875 1.5625,-0.96875 1.5625,-2.5 c 0,-1.734375 0.375,-3.46875 1.609375,-4.703125 0.125,-0.125 0.125,-0.140625 0.125,-0.171875 0,-0.078125 -0.03125,-0.109375 -0.09375,-0.109375 -0.109375,0 -1,0.6875 -1.59375,1.953125 -0.5,1.09375 -0.625,2.203125 -0.625,3.03125 0,0.78125 0.109375,1.984375 0.65625,3.125 C 2.25,1.84375 3.09375,2.5 3.203125,2.5 c 0.0625,0 0.09375,-0.03125 0.09375,-0.109375 z m 0,0"
               id="path4618" />
          </symbol>
          <symbol
             style="overflow:visible"
             overflow="visible"
             id="textext-6b01cdc7-7">
            <path
               inkscape:connector-curvature="0"
               style="stroke:none"
               d="m 2.875,-2.5 c 0,-0.765625 -0.109375,-1.96875 -0.65625,-3.109375 -0.59375,-1.21875 -1.453125,-1.875 -1.546875,-1.875 -0.0625,0 -0.109375,0.046875 -0.109375,0.109375 0,0.03125 0,0.046875 0.1875,0.234375 0.984375,0.984375 1.546875,2.5625 1.546875,4.640625 0,1.71875 -0.359375,3.46875 -1.59375,4.71875 C 0.5625,2.34375 0.5625,2.359375 0.5625,2.390625 0.5625,2.453125 0.609375,2.5 0.671875,2.5 0.765625,2.5 1.671875,1.8125 2.25,0.546875 2.765625,-0.546875 2.875,-1.65625 2.875,-2.5 Z m 0,0"
               id="path4621" />
          </symbol>
        </g>
      </defs>
      <g
         id="textext-6b01cdc7-8">
        <g
           style="fill:#000000;fill-opacity:1"
           id="g4624">
          <use
             height="100%"
             width="100%"
             xlink:href="#textext-6b01cdc7-1"
             x="223.43201"
             y="134.765"
             id="use4626" />
        </g>
        <g
           style="fill:#000000;fill-opacity:1"
           id="g4628">
          <use
             height="100%"
             width="100%"
             xlink:href="#textext-6b01cdc7-4"
             x="229.13499"
             y="136.259"
             id="use4630" />
        </g>
        <g
           style="fill:#000000;fill-opacity:1"
           id="g4632">
          <use
             height="100%"
             width="100%"
             xlink:href="#textext-6b01cdc7-6"
             x="233.605"
             y="134.765"
             id="use4634" />
        </g>
        <g
           style="fill:#000000;fill-opacity:1"
           id="g4636">
          <use
             height="100%"
             width="100%"
             xlink:href="#textext-6b01cdc7-2"
             x="237.479"
             y="134.765"
             id="use4638" />
        </g>
        <g
           style="fill:#000000;fill-opacity:1"
           id="g4640">
          <use
             height="100%"
             width="100%"
             xlink:href="#textext-6b01cdc7-7"
             x="243.173"
             y="134.765"
             id="use4642" />
        </g>
      </g>
    </g>
    <path
       inkscape:connector-curvature="0"
       id="path5108"
       d="m 310.12932,135.79237 24.40809,0 0,-24.40809"
       style="fill:none;fill-rule:evenodd;stroke:#000000;stroke-width:1px;stroke-linecap:butt;stroke-linejoin:miter;stroke-opacity:1" />
    <g
       id="g5203"
       ns0:preamble=""
       ns0:text="$1$"
       transform="matrix(1.5,0,0,1.5,-15.594059,-52.884202)">
      <defs
         id="defs5205">
        <g
           id="g5207">
          <symbol
             id="textext-f429455e-0"
             overflow="visible"
             style="overflow:visible">
            <path
               id="path5210"
               d=""
               style="stroke:none"
               inkscape:connector-curvature="0" />
          </symbol>
          <symbol
             id="textext-f429455e-1"
             overflow="visible"
             style="overflow:visible">
            <path
               id="path5213"
               d="m 2.9375,-6.375 c 0,-0.25 0,-0.265625 -0.234375,-0.265625 C 2.078125,-6 1.203125,-6 0.890625,-6 l 0,0.3125 c 0.203125,0 0.78125,0 1.296875,-0.265625 l 0,5.171875 c 0,0.359375 -0.03125,0.46875 -0.921875,0.46875 l -0.3125,0 0,0.3125 c 0.34375,-0.03125 1.203125,-0.03125 1.609375,-0.03125 0.390625,0 1.265625,0 1.609375,0.03125 l 0,-0.3125 -0.3125,0 c -0.90625,0 -0.921875,-0.109375 -0.921875,-0.46875 z m 0,0"
               style="stroke:none"
               inkscape:connector-curvature="0" />
          </symbol>
        </g>
      </defs>
      <g
         id="textext-f429455e-2">
        <g
           id="g5216"
           style="fill:#000000;fill-opacity:1">
          <use
             id="use5218"
             y="134.765"
             x="223.43201"
             xlink:href="#textext-f429455e-1"
             width="100%"
             height="100%" />
        </g>
      </g>
    </g>
    <g
       transform="matrix(1.5,0,0,1.5,2.7120098,-74.241284)"
       ns0:text="$1$"
       ns0:preamble=""
       id="g5321">
      <defs
         id="defs5323">
        <g
           id="g5325">
          <symbol
             style="overflow:visible"
             overflow="visible"
             id="symbol5327">
            <path
               inkscape:connector-curvature="0"
               style="stroke:none"
               d=""
               id="path5329" />
          </symbol>
          <symbol
             style="overflow:visible"
             overflow="visible"
             id="symbol5331">
            <path
               inkscape:connector-curvature="0"
               style="stroke:none"
               d="m 2.9375,-6.375 c 0,-0.25 0,-0.265625 -0.234375,-0.265625 C 2.078125,-6 1.203125,-6 0.890625,-6 l 0,0.3125 c 0.203125,0 0.78125,0 1.296875,-0.265625 l 0,5.171875 c 0,0.359375 -0.03125,0.46875 -0.921875,0.46875 l -0.3125,0 0,0.3125 c 0.34375,-0.03125 1.203125,-0.03125 1.609375,-0.03125 0.390625,0 1.265625,0 1.609375,0.03125 l 0,-0.3125 -0.3125,0 c -0.90625,0 -0.921875,-0.109375 -0.921875,-0.46875 z m 0,0"
               id="path5333" />
          </symbol>
        </g>
      </defs>
      <g
         id="g5335">
        <g
           style="fill:#000000;fill-opacity:1"
           id="g5337">
          <use
             height="100%"
             width="100%"
             xlink:href="#textext-f429455e-1"
             x="223.43201"
             y="134.765"
             id="use5339" />
        </g>
      </g>
    </g>
    <g
       ns0:text="$|h_0(x)|$"
       ns0:preamble=""
       transform="matrix(1.5,0,0,1.5,29.046049,-8.7458906)"
       id="g4344">
      <defs
         id="defs4346">
        <g
           id="g4348">
          <symbol
             overflow="visible"
             id="textext-de93bf50-0">
            <path
               style="stroke:none;"
               d=""
               id="path4351" />
          </symbol>
          <symbol
             overflow="visible"
             id="textext-de93bf50-1">
            <path
               style="stroke:none;"
               d="M 1.578125 -7.125 C 1.578125 -7.296875 1.578125 -7.484375 1.390625 -7.484375 C 1.1875 -7.484375 1.1875 -7.296875 1.1875 -7.125 L 1.1875 2.140625 C 1.1875 2.3125 1.1875 2.5 1.390625 2.5 C 1.578125 2.5 1.578125 2.3125 1.578125 2.140625 Z M 1.578125 -7.125 "
               id="path4354" />
          </symbol>
          <symbol
             overflow="visible"
             id="textext-de93bf50-2">
            <path
               style="stroke:none;"
               d=""
               id="path4357" />
          </symbol>
          <symbol
             overflow="visible"
             id="textext-de93bf50-3">
            <path
               style="stroke:none;"
               d="M 2.859375 -6.8125 C 2.859375 -6.8125 2.859375 -6.921875 2.734375 -6.921875 C 2.5 -6.921875 1.78125 -6.84375 1.515625 -6.8125 C 1.4375 -6.8125 1.328125 -6.796875 1.328125 -6.625 C 1.328125 -6.5 1.421875 -6.5 1.5625 -6.5 C 2.046875 -6.5 2.0625 -6.4375 2.0625 -6.328125 L 2.03125 -6.125 L 0.59375 -0.390625 C 0.546875 -0.25 0.546875 -0.234375 0.546875 -0.171875 C 0.546875 0.0625 0.75 0.109375 0.84375 0.109375 C 1 0.109375 1.15625 -0.015625 1.203125 -0.15625 L 1.390625 -0.90625 L 1.609375 -1.796875 C 1.671875 -2.03125 1.734375 -2.25 1.78125 -2.46875 C 1.796875 -2.53125 1.890625 -2.859375 1.890625 -2.921875 C 1.921875 -3.015625 2.234375 -3.5625 2.578125 -3.84375 C 2.796875 -4 3.09375 -4.1875 3.53125 -4.1875 C 3.953125 -4.1875 4.0625 -3.84375 4.0625 -3.484375 C 4.0625 -2.953125 3.6875 -1.859375 3.453125 -1.25 C 3.375 -1.03125 3.3125 -0.90625 3.3125 -0.703125 C 3.3125 -0.234375 3.671875 0.109375 4.140625 0.109375 C 5.078125 0.109375 5.4375 -1.34375 5.4375 -1.421875 C 5.4375 -1.53125 5.359375 -1.53125 5.328125 -1.53125 C 5.21875 -1.53125 5.21875 -1.5 5.171875 -1.34375 C 5.03125 -0.8125 4.703125 -0.109375 4.15625 -0.109375 C 3.984375 -0.109375 3.921875 -0.203125 3.921875 -0.4375 C 3.921875 -0.6875 4 -0.921875 4.09375 -1.140625 C 4.25 -1.578125 4.703125 -2.765625 4.703125 -3.34375 C 4.703125 -3.984375 4.3125 -4.40625 3.5625 -4.40625 C 2.9375 -4.40625 2.453125 -4.09375 2.078125 -3.640625 Z M 2.859375 -6.8125 "
               id="path4360" />
          </symbol>
          <symbol
             overflow="visible"
             id="textext-de93bf50-4">
            <path
               style="stroke:none;"
               d="M 3.328125 -3.015625 C 3.390625 -3.265625 3.625 -4.1875 4.3125 -4.1875 C 4.359375 -4.1875 4.609375 -4.1875 4.8125 -4.0625 C 4.53125 -4 4.34375 -3.765625 4.34375 -3.515625 C 4.34375 -3.359375 4.453125 -3.171875 4.71875 -3.171875 C 4.9375 -3.171875 5.25 -3.34375 5.25 -3.75 C 5.25 -4.265625 4.671875 -4.40625 4.328125 -4.40625 C 3.75 -4.40625 3.40625 -3.875 3.28125 -3.65625 C 3.03125 -4.3125 2.5 -4.40625 2.203125 -4.40625 C 1.171875 -4.40625 0.59375 -3.125 0.59375 -2.875 C 0.59375 -2.765625 0.703125 -2.765625 0.71875 -2.765625 C 0.796875 -2.765625 0.828125 -2.796875 0.84375 -2.875 C 1.1875 -3.9375 1.84375 -4.1875 2.1875 -4.1875 C 2.375 -4.1875 2.71875 -4.09375 2.71875 -3.515625 C 2.71875 -3.203125 2.546875 -2.546875 2.1875 -1.140625 C 2.03125 -0.53125 1.671875 -0.109375 1.234375 -0.109375 C 1.171875 -0.109375 0.953125 -0.109375 0.734375 -0.234375 C 0.984375 -0.296875 1.203125 -0.5 1.203125 -0.78125 C 1.203125 -1.046875 0.984375 -1.125 0.84375 -1.125 C 0.53125 -1.125 0.296875 -0.875 0.296875 -0.546875 C 0.296875 -0.09375 0.78125 0.109375 1.21875 0.109375 C 1.890625 0.109375 2.25 -0.59375 2.265625 -0.640625 C 2.390625 -0.28125 2.75 0.109375 3.34375 0.109375 C 4.375 0.109375 4.9375 -1.171875 4.9375 -1.421875 C 4.9375 -1.53125 4.859375 -1.53125 4.828125 -1.53125 C 4.734375 -1.53125 4.71875 -1.484375 4.6875 -1.421875 C 4.359375 -0.34375 3.6875 -0.109375 3.375 -0.109375 C 2.984375 -0.109375 2.828125 -0.421875 2.828125 -0.765625 C 2.828125 -0.984375 2.875 -1.203125 2.984375 -1.640625 Z M 3.328125 -3.015625 "
               id="path4363" />
          </symbol>
          <symbol
             overflow="visible"
             id="textext-de93bf50-5">
            <path
               style="stroke:none;"
               d=""
               id="path4366" />
          </symbol>
          <symbol
             overflow="visible"
             id="textext-de93bf50-6">
            <path
               style="stroke:none;"
               d="M 3.59375 -2.21875 C 3.59375 -2.984375 3.5 -3.546875 3.1875 -4.03125 C 2.96875 -4.34375 2.53125 -4.625 1.984375 -4.625 C 0.359375 -4.625 0.359375 -2.71875 0.359375 -2.21875 C 0.359375 -1.71875 0.359375 0.140625 1.984375 0.140625 C 3.59375 0.140625 3.59375 -1.71875 3.59375 -2.21875 Z M 1.984375 -0.0625 C 1.65625 -0.0625 1.234375 -0.25 1.09375 -0.8125 C 1 -1.21875 1 -1.796875 1 -2.3125 C 1 -2.828125 1 -3.359375 1.09375 -3.734375 C 1.25 -4.28125 1.6875 -4.4375 1.984375 -4.4375 C 2.359375 -4.4375 2.71875 -4.203125 2.84375 -3.796875 C 2.953125 -3.421875 2.96875 -2.921875 2.96875 -2.3125 C 2.96875 -1.796875 2.96875 -1.28125 2.875 -0.84375 C 2.734375 -0.203125 2.265625 -0.0625 1.984375 -0.0625 Z M 1.984375 -0.0625 "
               id="path4369" />
          </symbol>
          <symbol
             overflow="visible"
             id="textext-de93bf50-7">
            <path
               style="stroke:none;"
               d=""
               id="path4372" />
          </symbol>
          <symbol
             overflow="visible"
             id="textext-de93bf50-8">
            <path
               style="stroke:none;"
               d="M 3.296875 2.390625 C 3.296875 2.359375 3.296875 2.34375 3.125 2.171875 C 1.890625 0.921875 1.5625 -0.96875 1.5625 -2.5 C 1.5625 -4.234375 1.9375 -5.96875 3.171875 -7.203125 C 3.296875 -7.328125 3.296875 -7.34375 3.296875 -7.375 C 3.296875 -7.453125 3.265625 -7.484375 3.203125 -7.484375 C 3.09375 -7.484375 2.203125 -6.796875 1.609375 -5.53125 C 1.109375 -4.4375 0.984375 -3.328125 0.984375 -2.5 C 0.984375 -1.71875 1.09375 -0.515625 1.640625 0.625 C 2.25 1.84375 3.09375 2.5 3.203125 2.5 C 3.265625 2.5 3.296875 2.46875 3.296875 2.390625 Z M 3.296875 2.390625 "
               id="path4375" />
          </symbol>
          <symbol
             overflow="visible"
             id="textext-de93bf50-9">
            <path
               style="stroke:none;"
               d="M 2.875 -2.5 C 2.875 -3.265625 2.765625 -4.46875 2.21875 -5.609375 C 1.625 -6.828125 0.765625 -7.484375 0.671875 -7.484375 C 0.609375 -7.484375 0.5625 -7.4375 0.5625 -7.375 C 0.5625 -7.34375 0.5625 -7.328125 0.75 -7.140625 C 1.734375 -6.15625 2.296875 -4.578125 2.296875 -2.5 C 2.296875 -0.78125 1.9375 0.96875 0.703125 2.21875 C 0.5625 2.34375 0.5625 2.359375 0.5625 2.390625 C 0.5625 2.453125 0.609375 2.5 0.671875 2.5 C 0.765625 2.5 1.671875 1.8125 2.25 0.546875 C 2.765625 -0.546875 2.875 -1.65625 2.875 -2.5 Z M 2.875 -2.5 "
               id="path4378" />
          </symbol>
        </g>
      </defs>
      <g
         id="textext-de93bf50-10">
        <g
           style="fill:rgb(0%,0%,0%);fill-opacity:1;"
           id="g4381">
          <use
             xlink:href="#textext-de93bf50-1"
             x="223.432"
             y="134.765"
             id="use4383" />
        </g>
        <g
           style="fill:rgb(0%,0%,0%);fill-opacity:1;"
           id="g4385">
          <use
             xlink:href="#textext-de93bf50-3"
             x="226.2"
             y="134.765"
             id="use4387" />
        </g>
        <g
           style="fill:rgb(0%,0%,0%);fill-opacity:1;"
           id="g4389">
          <use
             xlink:href="#textext-de93bf50-6"
             x="231.94"
             y="136.259"
             id="use4391" />
        </g>
        <g
           style="fill:rgb(0%,0%,0%);fill-opacity:1;"
           id="g4393">
          <use
             xlink:href="#textext-de93bf50-8"
             x="236.409"
             y="134.765"
             id="use4395" />
        </g>
        <g
           style="fill:rgb(0%,0%,0%);fill-opacity:1;"
           id="g4397">
          <use
             xlink:href="#textext-de93bf50-4"
             x="240.283"
             y="134.765"
             id="use4399" />
        </g>
        <g
           style="fill:rgb(0%,0%,0%);fill-opacity:1;"
           id="g4401">
          <use
             xlink:href="#textext-de93bf50-9"
             x="245.977"
             y="134.765"
             id="use4403" />
        </g>
        <g
           style="fill:rgb(0%,0%,0%);fill-opacity:1;"
           id="g4405">
          <use
             xlink:href="#textext-de93bf50-1"
             x="249.852"
             y="134.765"
             id="use4407" />
        </g>
      </g>
    </g>
    <g
       id="g3556"
       transform="matrix(1.5,0,0,1.5,-69.036509,-12.464925)"
       ns0:preamble=""
       ns0:text="$\\epsilon_H$">
      <defs
         id="defs3558">
        <g
           id="g3560">
          <symbol
             id="textext-e2955b78-0"
             overflow="visible">
            <path
               id="path3563"
               d=""
               style="stroke:none;" />
          </symbol>
          <symbol
             id="textext-e2955b78-1"
             overflow="visible">
            <path
               id="path3566"
               d="M 2.96875 -2.25 C 3.125 -2.25 3.3125 -2.25 3.3125 -2.421875 C 3.3125 -2.5625 3.1875 -2.5625 3.015625 -2.5625 L 1.40625 -2.5625 C 1.640625 -3.40625 2.203125 -3.984375 3.109375 -3.984375 L 3.421875 -3.984375 C 3.59375 -3.984375 3.75 -3.984375 3.75 -4.15625 C 3.75 -4.296875 3.625 -4.296875 3.453125 -4.296875 L 3.09375 -4.296875 C 1.796875 -4.296875 0.46875 -3.296875 0.46875 -1.78125 C 0.46875 -0.671875 1.21875 0.109375 2.265625 0.109375 C 2.921875 0.109375 3.5625 -0.296875 3.5625 -0.40625 C 3.5625 -0.421875 3.5625 -0.53125 3.46875 -0.53125 C 3.453125 -0.53125 3.421875 -0.53125 3.34375 -0.484375 C 3.03125 -0.28125 2.65625 -0.109375 2.296875 -0.109375 C 1.71875 -0.109375 1.21875 -0.53125 1.21875 -1.40625 C 1.21875 -1.75 1.296875 -2.140625 1.328125 -2.25 Z M 2.96875 -2.25 "
               style="stroke:none;" />
          </symbol>
          <symbol
             id="textext-e2955b78-2"
             overflow="visible">
            <path
               id="path3569"
               d=""
               style="stroke:none;" />
          </symbol>
          <symbol
             id="textext-e2955b78-3"
             overflow="visible">
            <path
               id="path3572"
               d="M 5.859375 -4.1875 C 5.921875 -4.453125 5.9375 -4.515625 6.453125 -4.515625 C 6.609375 -4.515625 6.6875 -4.515625 6.6875 -4.65625 C 6.6875 -4.6875 6.671875 -4.765625 6.578125 -4.765625 C 6.375 -4.765625 5.875 -4.734375 5.671875 -4.734375 C 5.546875 -4.734375 5.296875 -4.734375 5.1875 -4.734375 C 5.046875 -4.75 4.875 -4.765625 4.75 -4.765625 C 4.703125 -4.765625 4.59375 -4.765625 4.59375 -4.609375 C 4.59375 -4.515625 4.6875 -4.515625 4.828125 -4.515625 C 4.828125 -4.515625 4.96875 -4.515625 5.09375 -4.5 C 5.234375 -4.484375 5.25 -4.46875 5.25 -4.390625 C 5.25 -4.390625 5.25 -4.34375 5.21875 -4.25 L 4.8125 -2.59375 L 2.46875 -2.59375 L 2.875 -4.21875 C 2.9375 -4.453125 2.953125 -4.515625 3.484375 -4.515625 C 3.609375 -4.515625 3.703125 -4.515625 3.703125 -4.65625 C 3.703125 -4.6875 3.671875 -4.765625 3.59375 -4.765625 C 3.390625 -4.765625 2.875 -4.734375 2.671875 -4.734375 C 2.5625 -4.734375 2.3125 -4.734375 2.1875 -4.734375 C 2.0625 -4.75 1.890625 -4.765625 1.75 -4.765625 C 1.71875 -4.765625 1.609375 -4.765625 1.609375 -4.609375 C 1.609375 -4.515625 1.6875 -4.515625 1.828125 -4.515625 C 1.84375 -4.515625 1.96875 -4.515625 2.09375 -4.5 C 2.25 -4.484375 2.265625 -4.46875 2.265625 -4.390625 C 2.265625 -4.390625 2.265625 -4.34375 2.234375 -4.25 L 1.296875 -0.546875 C 1.25 -0.3125 1.234375 -0.25 0.6875 -0.25 C 0.578125 -0.25 0.484375 -0.25 0.484375 -0.109375 C 0.484375 -0.03125 0.53125 0 0.59375 0 C 0.796875 0 1.296875 -0.03125 1.5 -0.03125 C 1.609375 -0.03125 1.859375 -0.03125 1.984375 -0.015625 C 2.125 -0.015625 2.296875 0 2.421875 0 C 2.453125 0 2.578125 0 2.578125 -0.140625 C 2.578125 -0.25 2.5 -0.25 2.34375 -0.25 C 2.234375 -0.25 2.203125 -0.25 2.078125 -0.265625 C 1.921875 -0.28125 1.921875 -0.296875 1.921875 -0.375 C 1.921875 -0.375 1.921875 -0.421875 1.953125 -0.515625 L 2.40625 -2.34375 L 4.75 -2.34375 L 4.296875 -0.546875 C 4.234375 -0.3125 4.21875 -0.25 3.671875 -0.25 C 3.5625 -0.25 3.46875 -0.25 3.46875 -0.109375 C 3.46875 -0.03125 3.515625 0 3.578125 0 C 3.78125 0 4.28125 -0.03125 4.484375 -0.03125 C 4.609375 -0.03125 4.84375 -0.03125 4.96875 -0.015625 C 5.109375 -0.015625 5.28125 0 5.421875 0 C 5.453125 0 5.5625 0 5.5625 -0.140625 C 5.5625 -0.25 5.484375 -0.25 5.328125 -0.25 C 5.21875 -0.25 5.1875 -0.25 5.0625 -0.265625 C 4.90625 -0.28125 4.90625 -0.296875 4.90625 -0.375 C 4.90625 -0.40625 4.9375 -0.484375 4.9375 -0.515625 Z M 5.859375 -4.1875 "
               style="stroke:none;" />
          </symbol>
        </g>
      </defs>
      <g
         id="textext-e2955b78-4">
        <g
           id="g3575"
           style="fill:rgb(0%,0%,0%);fill-opacity:1;">
          <use
             id="use3577"
             y="134.765"
             x="223.432"
             xlink:href="#textext-e2955b78-1" />
        </g>
        <g
           id="g3579"
           style="fill:rgb(0%,0%,0%);fill-opacity:1;">
          <use
             id="use3581"
             y="136.259"
             x="227.476"
             xlink:href="#textext-e2955b78-3" />
        </g>
      </g>
    </g>
  </g>
</svg>
